<!-- icon666.com - MILLIONS vector ICONS FREE --><svg version="1.1" id="Layer_1" xmlns="http://www.w3.org/2000/svg" xmlns:xlink="http://www.w3.org/1999/xlink" x="0px" y="0px" viewBox="0 0 512 512" style="enable-background:new 0 0 512 512;" xml:space="preserve"><g transform="translate(0 -1)"><g><path d="M512,146.067c0-28.273-22.927-51.2-51.2-51.2s-51.2,22.927-51.2,51.2c0,15.159,6.595,28.774,17.067,38.15v13.048h-34.133 h-17.067h-34.133h-17.067h-34.133h-17.067h-34.133h-17.067h-34.133h-17.067h-34.133h-17.067H85.333v-13.047 c10.471-9.375,17.067-22.991,17.067-38.15c0-28.273-22.927-51.2-51.2-51.2S0,117.793,0,146.067 c0,15.159,6.595,28.774,17.067,38.15v234.917h68.267v-0.003h34.133h17.067h34.133h17.067h34.133h17.067h34.133h17.067h34.133 h17.067h34.133h17.067h34.133v0.003h68.267V184.217C505.405,174.841,512,161.225,512,146.067z M392.533,214.331h34.133v34.133 h-34.133V214.331z M426.667,299.664h-34.133v-34.133h34.133V299.664z M426.667,350.864h-34.133v-34.133h34.133V350.864z M85.333,316.731h34.133v34.133H85.333V316.731z M85.333,265.531h34.133v34.133H85.333V265.531z M375.467,299.664h-34.133v-34.133 h34.133V299.664z M324.267,299.664h-34.133v-34.133h34.133V299.664z M273.067,299.664h-34.133v-34.133h34.133V299.664z M221.867,299.664h-34.133v-34.133h34.133V299.664z M170.667,299.664h-34.133v-34.133h34.133V299.664z M136.533,316.731h34.133 v34.133h-34.133V316.731z M187.733,316.731h34.133v34.133h-34.133V316.731z M238.933,316.731h34.133v34.133h-34.133V316.731z M290.133,316.731h34.133v34.133h-34.133V316.731z M341.333,316.731h34.133v34.133h-34.133V316.731z M341.333,214.331h34.133 v34.133h-34.133V214.331z M290.133,214.331h34.133v34.133h-34.133V214.331z M238.933,214.331h34.133v34.133h-34.133V214.331z M187.733,214.331h34.133v34.133h-34.133V214.331z M136.533,214.331h34.133v34.133h-34.133V214.331z M119.467,214.331v34.133 H85.333v-34.133H119.467z M51.2,111.933c18.848,0,34.133,15.286,34.133,34.133c0,9.964-4.274,18.93-11.085,25.171l-2.591,1.957 c-5.198,3.926-11.182,6.302-17.501,6.87c-0.206,0.018-0.411,0.033-0.618,0.047c-0.263,0.019-0.525,0.037-0.789,0.049 c-0.514,0.023-1.029,0.039-1.548,0.039s-1.035-0.016-1.548-0.039c-0.264-0.012-0.526-0.031-0.789-0.049 c-0.206-0.014-0.412-0.029-0.618-0.047c-6.319-0.567-12.303-2.943-17.501-6.87l-2.591-1.957 c-6.812-6.241-11.086-15.207-11.086-25.171C17.067,127.219,32.352,111.933,51.2,111.933z M34.133,194.341 c3.327,1.177,6.812,2.013,10.414,2.481c0.076,0.01,0.152,0.019,0.228,0.029c0.594,0.075,1.19,0.143,1.791,0.197 c0.343,0.032,0.687,0.054,1.031,0.078c0.404,0.028,0.806,0.061,1.213,0.08c0.794,0.038,1.59,0.06,2.39,0.06s1.596-0.023,2.39-0.06 c0.406-0.019,0.809-0.052,1.213-0.08c0.344-0.025,0.689-0.047,1.031-0.078c0.601-0.054,1.197-0.122,1.791-0.197 c0.076-0.01,0.152-0.019,0.228-0.029c3.602-0.468,7.087-1.305,10.414-2.481v2.923v51.2v17.067v34.133v17.067v34.133v17.067v34.136 H34.133V194.341z M119.467,402.064H85.333v-34.133h34.133V402.064z M170.667,402.064h-34.133v-34.133h34.133V402.064z M221.867,402.064h-34.133v-34.133h34.133V402.064z M273.067,402.064h-34.133v-34.133h34.133V402.064z M324.267,402.064h-34.133 v-34.133h34.133V402.064z M375.467,402.064h-34.133v-34.133h34.133V402.064z M392.533,402.064v-34.133h34.133v34.133H392.533z M477.867,402.067h-34.133v-34.136v-17.067v-34.133v-17.067v-34.133v-17.067v-51.2v-2.923c3.327,1.177,6.812,2.013,10.414,2.481 c0.076,0.01,0.152,0.019,0.228,0.029c0.594,0.075,1.19,0.143,1.791,0.197c0.343,0.032,0.687,0.054,1.031,0.078 c0.404,0.028,0.806,0.061,1.213,0.08c0.794,0.038,1.59,0.06,2.39,0.06s1.596-0.023,2.39-0.06c0.406-0.019,0.809-0.052,1.213-0.08 c0.344-0.025,0.689-0.047,1.031-0.078c0.601-0.054,1.197-0.122,1.791-0.197c0.076-0.01,0.152-0.019,0.228-0.029 c3.602-0.468,7.087-1.305,10.414-2.481V402.067z M483.848,171.237l-2.591,1.957c-5.198,3.926-11.182,6.302-17.501,6.87 c-0.205,0.018-0.411,0.033-0.618,0.047c-0.263,0.019-0.525,0.037-0.789,0.049c-0.514,0.023-1.029,0.039-1.548,0.039 s-1.035-0.016-1.548-0.039c-0.264-0.012-0.526-0.031-0.789-0.049c-0.206-0.014-0.412-0.029-0.618-0.047 c-6.319-0.567-12.303-2.943-17.501-6.87l-2.591-1.957c-6.812-6.241-11.086-15.207-11.086-25.171 c0-18.848,15.286-34.133,34.133-34.133c18.848,0,34.133,15.286,34.133,34.133C494.933,156.03,490.66,164.996,483.848,171.237z"></path></g></g></svg>