<!-- icon666.com - MILLIONS vector ICONS FREE --><svg id="Layer_1" viewBox="0 0 64 64" xmlns="http://www.w3.org/2000/svg" data-name="Layer 1"><path d="m62 4v-2h-18v2h8v5h-2a1 1 0 0 0 -1 1v3h-4.29c-2.23-2.44-7.13-4-12.71-4s-10.48 1.56-12.71 4h-4.29v-3a1 1 0 0 0 -1-1h-2v-5h8v-2h-18v2h8v5h-2a1 1 0 0 0 -1 1v3h-2a3 3 0 0 0 0 6h13.7l-8.06 3.07a1 1 0 0 0 -.64.93v5h-5a3 3 0 0 0 -3 3h2a1 1 0 0 1 1-1h12a1 1 0 0 1 1 1h2a3 3 0 0 0 -3-3h-5v-4.31l8.87-3.38a14.82 14.82 0 0 0 4.13 1.78v2.91a1 1 0 0 0 .68.95l3.32 1.11a3 3 0 0 0 6 0l3.32-1.06a1 1 0 0 0 .68-1v-2.91a14.82 14.82 0 0 0 4.13-1.78l8.87 3.38v4.31h-5a3 3 0 0 0 -3 3h2a1 1 0 0 1 1-1h12a1 1 0 0 1 1 1h2a3 3 0 0 0 -3-3h-5v-5a1 1 0 0 0 -.64-.93l-8.06-3.07h13.7a3 3 0 0 0 0-6h-2v-3a1 1 0 0 0 -1-1h-2v-5zm-30 7a24.17 24.17 0 0 1 6.73.92 7 7 0 0 1 -13.46 0 24.17 24.17 0 0 1 6.73-.92zm-23 0h4v2h-4zm23 17a1 1 0 1 1 1-1 1 1 0 0 1 -1 1zm5-3.72-2.65.88a3 3 0 0 0 -4.7 0l-2.65-.88v-1.72a27.53 27.53 0 0 0 5 .44 27.53 27.53 0 0 0 5-.44zm22-9.28a1 1 0 0 1 0 2h-14.76a1 1 0 0 0 -.79.39c-1.63 2.13-6.34 3.61-11.45 3.61s-9.82-1.48-11.45-3.61a1 1 0 0 0 -.79-.39h-14.76a1 1 0 0 1 0-2h14.76a1 1 0 0 0 .79-.39 7.27 7.27 0 0 1 2.84-2 9 9 0 0 0 17.22 0 7.27 7.27 0 0 1 2.84 2 1 1 0 0 0 .79.39zm-4-4v2h-4v-2z"></path><path d="m31 32h2v2h-2z"></path><path d="m31 36h2v4h-2z"></path><path d="m35.92 29.87h2v2.01h-2z" transform="matrix(.704 -.71 .71 .704 -11 35.35)"></path><path d="m39.49 32.41h2v4.02h-2z" transform="matrix(.704 -.71 .71 .704 -12.46 38.93)"></path><path d="m25.9 29.88h2.01v2h-2.01z" transform="matrix(.71 -.704 .704 .71 -13.94 27.9)"></path><path d="m21.33 33.41h4.02v2h-4.02z" transform="matrix(.71 -.704 .704 .71 -17.46 26.41)"></path><path d="m11 43v8h2v-7h7v-2h-8a1 1 0 0 0 -1 1z"></path><path d="m11 61a1 1 0 0 0 1 1h8v-2h-7v-7h-2z"></path><path d="m51 60h-7v2h8a1 1 0 0 0 1-1v-8h-2z"></path><path d="m53 43a1 1 0 0 0 -1-1h-8v2h7v7h2z"></path><path d="m27 47v10a1 1 0 0 0 1 1h14a1 1 0 0 0 1-1v-1.61l4.68 1.61a1.19 1.19 0 0 0 .32 0 .94.94 0 0 0 .58-.19 1 1 0 0 0 .42-.81v-8a1 1 0 0 0 -.42-.81 1 1 0 0 0 -.9-.14l-4.68 1.56v-1.61a1 1 0 0 0 -1-1h-14a1 1 0 0 0 -1 1zm16 3.72 4-1.33v5.22l-4-1.33zm-14-2.72h12v8h-12z"></path><path d="m15 52a5 5 0 1 0 5-5 5 5 0 0 0 -5 5zm8 0a3 3 0 1 1 -3-3 3 3 0 0 1 3 3z"></path><path d="m19 51h2v2h-2z"></path><path d="m38.45 52.89a1 1 0 0 0 0-1.78l-6-3a1 1 0 0 0 -1.45.89v6a1 1 0 0 0 .47.85 1 1 0 0 0 .53.15 1 1 0 0 0 .45-.11zm-5.45-2.27 2.76 1.38-2.76 1.38z"></path></svg>