<!-- icon666.com - MILLIONS vector ICONS FREE --><svg id="Capa_1" enable-background="new 0 0 512 512" viewBox="0 0 512 512" xmlns="http://www.w3.org/2000/svg"><g><g><path d="m458.033 0h-404.066c-4.142 0-7.5 3.358-7.5 7.5v90.915c0 17.813 9.779 33.375 24.244 41.629v148.866h-16.741c-4.142 0-7.5 3.358-7.5 7.5v32.32c0 4.142 3.358 7.5 7.5 7.5h8.66v135.94c0 4.142 3.358 7.5 7.5 7.5h11.693v24.83c0 4.142 3.358 7.5 7.5 7.5h32.325c4.142 0 7.5-3.358 7.5-7.5v-24.83h105.262c4.142 0 7.5-3.358 7.5-7.5s-3.358-7.5-7.5-7.5h-156.78v-128.44h356.74v128.44h-164.96c-4.142 0-7.5 3.358-7.5 7.5s3.358 7.5 7.5 7.5h113.441v24.83c0 4.142 3.358 7.5 7.5 7.5h32.325c4.142 0 7.5-3.358 7.5-7.5v-24.83h11.693c4.142 0 7.5-3.358 7.5-7.5v-135.94h8.66c4.142 0 7.5-3.358 7.5-7.5v-32.32c0-4.142-3.358-7.5-7.5-7.5h-16.74v-148.867c14.464-8.255 24.243-23.816 24.243-41.628v-90.915c.001-4.142-3.357-7.5-7.499-7.5zm-343.885 497h-17.325v-17.33h17.325zm301.029 0h-17.325v-17.33h17.325zm35.356-416.187h-65.813v-65.813h65.813zm-80.813 0h-65.813v-65.813h65.813zm-80.813 0h-65.813v-65.813h65.813zm-80.814 0h-65.813v-65.813h65.813zm-65.813 15h65.813v2.602c0 18.145-14.762 32.907-32.906 32.907-18.145 0-32.907-14.762-32.907-32.907zm80.813 0h65.813v2.602c0 18.145-14.762 32.907-32.907 32.907s-32.907-14.762-32.907-32.907v-2.602zm80.814 0h65.813v2.602c0 18.145-14.762 32.907-32.907 32.907s-32.906-14.762-32.906-32.907zm-242.44-80.813h65.813v65.813h-65.813zm0 80.813h65.813v2.602c0 18.145-14.762 32.907-32.906 32.907-18.145 0-32.907-14.762-32.907-32.907zm24.244 49.709c2.812.516 5.704.799 8.663.799s5.851-.284 8.663-.799v143.388h-17.326zm364.819 175.708h-389.06v-17.32h85.06c4.142 0 7.5-3.358 7.5-7.5s-3.358-7.5-7.5-7.5h-28.493v-148.867c6.793-3.876 12.547-9.363 16.744-15.942 8.513 13.344 23.438 22.22 40.407 22.22 16.968 0 31.893-8.875 40.406-22.22 8.513 13.344 23.438 22.22 40.407 22.22s31.893-8.875 40.407-22.22c8.513 13.344 23.438 22.22 40.406 22.22 16.969 0 31.893-8.875 40.407-22.22 4.197 6.579 9.951 12.065 16.744 15.942v148.867h-212.435c-4.142 0-7.5 3.358-7.5 7.5s3.358 7.5 7.5 7.5h269zm-24.24-32.32h-17.327v-143.388c2.812.516 5.704.799 8.663.799s5.852-.284 8.664-.8zm-8.664-157.589c-18.145 0-32.906-14.762-32.906-32.907v-2.602h65.813v2.602c0 18.146-14.762 32.907-32.907 32.907z"></path><path d="m339.57 368.56c4.142 0 7.5-3.358 7.5-7.5s-3.358-7.5-7.5-7.5h-237.11c-4.142 0-7.5 3.358-7.5 7.5v78.79c0 4.142 3.358 7.5 7.5 7.5h307.08c4.142 0 7.5-3.358 7.5-7.5v-78.79c0-4.142-3.358-7.5-7.5-7.5h-34.97c-4.142 0-7.5 3.358-7.5 7.5s3.358 7.5 7.5 7.5h27.47v63.79h-292.08v-63.79z"></path></g></g></svg>