<!-- icon666.com - MILLIONS vector ICONS FREE --><svg id="Layer_1" enable-background="new 0 0 512 512" viewBox="0 0 512 512" xmlns="http://www.w3.org/2000/svg"><g id="_x31_098_x2C__Board_x2C__closed_x2C__open_x2C__sign"><g><path d="m485.971 176.007h-36.856l-155.015-107.884c8.224-25.911-11.223-52.095-38.1-52.095-26.799 0-46.342 26.11-38.109 52.095l-155.014 107.884h-36.857c-5.519 0-9.992 4.479-9.992 10.001v299.968c0 5.523 4.474 9.996 9.992 9.996h459.951c5.521 0 10.002-4.473 10.002-9.996v-299.968c0-5.522-4.483-10.001-10.002-10.001zm-229.971-139.982c11.027 0 19.992 8.971 19.992 19.997 0 10.865-8.73 19.996-19.992 19.996-11.261 0-20.002-9.131-20.002-19.996 0-11.026 8.976-19.997 20.002-19.997zm-27.492 49.071c15.313 14.558 39.633 14.582 54.975 0l130.617 90.911h-316.209zm-192.488 390.879v-219.975h259.975c5.518 0 10-4.479 10-9.996 0-5.523-4.482-10.001-10-10.001h-259.975v-39.999h439.951v219.98h-259.965c-5.527 0-10 4.473-10 9.996 0 5.522 4.473 10.002 10 10.002h259.965v39.991z"></path><path d="m56.021 275.996h19.992v20.002h-19.992z"></path><path d="m96.016 275.996h20.002v20.002h-20.002z"></path><path d="m136.01 275.996h20.001v20.002h-20.001z"></path><path d="m176.003 275.996h20.001v20.002h-20.001z"></path><path d="m216.006 275.996h19.992v20.002h-19.992z"></path><path d="m256 275.996h19.992v20.002h-19.992z"></path><path d="m235.998 375.986h20.002v19.996h-20.002z"></path><path d="m275.992 375.986h20.002v19.996h-20.002z"></path><path d="m315.986 375.986h20.002v19.996h-20.002z"></path><path d="m355.99 375.986h19.99v19.996h-19.99z"></path><path d="m395.982 375.986h19.991v19.996h-19.991z"></path><path d="m435.977 375.986h19.992v19.996h-19.992z"></path></g></g></svg>