<!-- icon666.com - MILLIONS vector ICONS FREE --><svg id="Capa_1" enable-background="new 0 0 512 512" viewBox="0 0 512 512" xmlns="http://www.w3.org/2000/svg"><g><path d="m480.452 88.177h-448.904c-17.396 0-31.548 14.153-31.548 31.549v272.549c0 17.396 14.152 31.548 31.548 31.548h448.903c17.396 0 31.548-14.152 31.548-31.548v-272.549c.001-17.396-14.151-31.549-31.547-31.549zm16.548 304.097c0 9.125-7.423 16.548-16.548 16.548h-448.904c-9.125 0-16.548-7.424-16.548-16.548v-272.548c0-9.125 7.423-16.548 16.548-16.548h448.903c9.125 0 16.548 7.424 16.548 16.548v272.548z"></path><path d="m175.323 183.855c0-12.976-10.557-23.532-23.532-23.532s-23.532 10.557-23.532 23.532 10.557 23.532 23.532 23.532 23.532-10.556 23.532-23.532zm-32.065 0c0-4.705 3.828-8.532 8.532-8.532s8.532 3.828 8.532 8.532-3.828 8.532-8.532 8.532-8.532-3.827-8.532-8.532z"></path><path d="m165.546 236.152 7.169 14.34c4.012 8.024 12.077 13.008 21.048 13.008h22.156c4.142 0 7.5-3.358 7.5-7.5s-3.358-7.5-7.5-7.5h-22.156c-3.252 0-6.177-1.807-7.631-4.716l-7.17-14.34c-4.012-8.024-12.077-13.008-21.048-13.008h-51.382c-9.678 0-18.254 5.806-21.849 14.792l-12.001 30.002c-1.539 3.846.332 8.211 4.178 9.749.914.366 1.856.539 2.783.539 2.977 0 5.793-1.784 6.966-4.716l12.001-30.002c1.304-3.258 4.413-5.364 7.922-5.364h10.804l-17.467 52.401c-2.439 7.317-3.676 14.938-3.676 22.651v29.674c0 .285-.231.516-.516.516h-48.096c-4.142 0-7.5 3.358-7.5 7.5s3.358 7.5 7.5 7.5h48.097c8.556 0 15.516-6.96 15.516-15.516v-29.674c0-.971.034-1.94.083-2.907h20.577l45.613 65.161h-129.886c-4.142 0-7.5 3.358-7.5 7.5s3.358 7.5 7.5 7.5h168.339c4.142 0 7.5-3.358 7.5-7.5v-88.177c0-4.142-3.358-7.5-7.5-7.5s-7.5 3.358-7.5 7.5v80.677h-12.644l-51.709-73.87 20.199-60.597c.498.558.933 1.184 1.28 1.877zm-35.193 52.429h-16.253v-.001l19.048-57.144h16.253z"></path><path d="m215.919 128.258h-168.338c-4.142 0-7.5 3.358-7.5 7.5v176.354c0 4.142 3.358 7.5 7.5 7.5s7.5-3.358 7.5-7.5v-168.854h153.339v80.676c0 4.142 3.358 7.5 7.5 7.5s7.5-3.358 7.5-7.5v-88.176c-.001-4.142-3.358-7.5-7.501-7.5z"></path><path d="m392.884 175.236c-4.442-4.448-10.352-6.897-16.642-6.897-6.289 0-12.2 2.449-16.638 6.894-4.446 4.445-6.894 10.354-6.894 16.639s2.448 12.193 6.893 16.638l4.693 4.693c2.93 2.929 7.678 2.928 10.607 0 2.929-2.929 2.929-7.678 0-10.607l-4.693-4.694c-1.612-1.612-2.5-3.754-2.5-6.031s.888-4.42 2.503-6.036c1.608-1.61 3.749-2.497 6.028-2.497 2.28 0 4.42.887 6.032 2.5l64.129 64.129c1.612 1.612 2.5 3.755 2.5 6.032s-.888 4.42-2.5 6.032l-64.132 64.132c-1.608 1.61-3.749 2.497-6.029 2.497-2.279 0-4.42-.887-6.032-2.5-1.612-1.612-2.5-3.755-2.5-6.032s.888-4.419 2.5-6.032l36.758-36.762c2.145-2.145 2.786-5.371 1.625-8.173-1.161-2.803-3.896-4.63-6.929-4.63h-121.615c-4.705 0-8.532-3.828-8.532-8.532s3.828-8.532 8.532-8.532h121.617c4.142 0 7.5-3.358 7.5-7.5s-3.358-7.5-7.5-7.5h-121.617c-12.976 0-23.532 10.557-23.532 23.532s10.557 23.532 23.532 23.532h103.512l-23.956 23.958c-4.445 4.445-6.894 10.354-6.894 16.639s2.448 12.193 6.89 16.635c4.442 4.448 10.352 6.897 16.642 6.897s12.2-2.449 16.639-6.894l64.129-64.129c9.175-9.174 9.175-24.103 0-33.277z"></path></g></svg>