<!-- icon666.com - MILLIONS vector ICONS FREE --><svg viewBox="0 0 496 496" xmlns="http://www.w3.org/2000/svg"><path d="m492.296875 80-76.296875-67.601562v-12.398438h-48v10.585938l-160 64.007812v69.40625h32v64c-5.894531 0-11 3.238281-13.777344 8h-18.222656v-56h-16v-80h-32v-48h-16v-32h-80v32h-16v48h-32v80h-16v256h64v64h-32v16h432v-16h-32v-64h16v-96h-16v-176h64v-64zm-24.128906 0h-36.167969v-32h-16v-14.222656zm-52.167969-16v16h-48v-16zm-16-48v32h-16v-32zm-32 11.816406v20.183594h-16v32h-114.464844zm-128 196.183594h16l.007812 64h-16.007812zm16 80c5.894531 0 11-3.238281 13.777344-8h66.222656v-48h-16v-32h-50.222656c-2.777344-4.761719-7.882813-8-13.777344-8v-64h96v176h-144v-24h18.222656c2.777344 4.761719 7.882813 8 13.777344 8zm16-72h32v16h-32zm0 32h48v16h-48zm160 121.191406-39.351562-49.191406h39.351562zm-368 14.808594v-49.191406l39.351562 49.191406zm244.152344-64 51.199218 64h-43.503906l-51.199218-64zm-64 0 51.199218 64h-43.503906l-51.199218-64zm-64 0 51.199218 64h-43.503906l-51.199218-64zm-64 0 51.199218 64h-43.503906l-51.199218-64zm267.847656 80v64h-272v-64zm-4.152344-16-51.199218-64h43.503906l51.199218 64zm-.535156-80 12.6875-12.6875 12.6875 12.6875zm-11.3125-11.3125v-25.375l12.6875 12.6875zm3.3125-44.6875 20.6875-20.6875 20.6875 20.6875-20.6875 20.6875zm-3.3125-19.3125v-25.375l12.6875 12.6875zm3.3125-44.6875 20.6875-20.6875 20.6875 20.6875-20.6875 20.6875zm-3.3125-19.3125v-25.375l12.6875 12.6875zm35.3125 115.3125 12.6875-12.6875v25.375zm12.6875-51.3125-12.6875-12.6875 12.6875-12.6875zm-12.6875-76.6875 12.6875-12.6875v25.375zm-11.3125-11.3125-12.6875-12.6875h25.375zm-168 91.3125h-48v-16h48zm-64-32v8h-112v-16h112zm-112 24h112v16h-112zm0 32h112v16h-112zm128-8h48v16h-48zm-96-248h48v16h-48zm-16 32h80v32h-80zm-32 48h144v64h-16v-48h-48v48h-16v-48h-48v48h-16zm112 64h-16v-32h16zm-64 0h-16v-32h16zm-64 240v-224h176v40h-16v-24h-144v112h144v-8h16v24h-144v80zm64 16h16v64h-16zm336 64h-16v-64h16zm64-352h-256v-32h256zm0 0"></path><path d="m0 480h16v16h-16zm0 0"></path><path d="m480 480h16v16h-16zm0 0"></path></svg>