<!-- icon666.com - MILLIONS vector ICONS FREE --><svg version="1.1" id="Capa_1" xmlns="http://www.w3.org/2000/svg" xmlns:xlink="http://www.w3.org/1999/xlink" x="0px" y="0px" viewBox="0 0 512 512" style="enable-background:new 0 0 512 512;" xml:space="preserve"><g><g><g><path d="M504,0H8C3.584,0,0,3.584,0,8v304c0,4.424,3.584,8,8,8h296v16c0,4.424,3.584,8,8,8h16v72H40c-4.416,0-8,3.576-8,8 s3.584,8,8,8h288v24H24c-4.416,0-8,3.576-8,8s3.584,8,8,8h312h96h56c4.416,0,8-3.576,8-8s-3.584-8-8-8h-48v-24h32 c4.416,0,8-3.576,8-8s-3.584-8-8-8h-32v-72h16c4.416,0,8-3.576,8-8v-16h40c4.416,0,8-3.576,8-8V8C512,3.584,508.416,0,504,0z M424,456h-32v-88c0-4.424-3.584-8-8-8c-4.416,0-8,3.576-8,8v88h-32V344h80V456z M448,328h-16h-96h-16v-88c0-4.408,3.592-8,8-8 h112c4.408,0,8,3.592,8,8V328z M344,176c0-22.056,17.944-40,40-40c22.056,0,40,17.944,40,40c0,22.056-17.944,40-40,40 C361.944,216,344,198.056,344,176z M496,304h-32v-64c0-13.232-10.768-24-24-24h-16.86c10.394-10.172,16.86-24.342,16.86-40 c0-30.88-25.12-56-56-56s-56,25.12-56,56c0,15.658,6.467,29.828,16.86,40H328c-13.232,0-24,10.768-24,24v64H16V16h480V304z"></path><path d="M504,496H8c-4.416,0-8,3.576-8,8s3.584,8,8,8h496c4.416,0,8-3.576,8-8S508.416,496,504,496z"></path><path d="M40,48c2.08,0,4.16-0.88,5.68-2.32C47.12,44.16,48,42.08,48,40s-0.88-4.16-2.32-5.68c-3.04-2.96-8.4-2.96-11.36,0 C32.88,35.84,32,37.92,32,40s0.88,4.16,2.32,5.68C35.84,47.12,37.92,48,40,48z"></path><path d="M72,48c2.08,0,4.16-0.88,5.68-2.32C79.12,44.16,80,42.08,80,40s-0.88-4.16-2.32-5.68c-3.04-2.96-8.4-2.96-11.36,0 C64.88,35.84,64,37.92,64,40s0.88,4.16,2.32,5.68C67.84,47.12,69.92,48,72,48z"></path><path d="M104,48c2.16,0,4.16-0.88,5.68-2.32c1.44-1.52,2.32-3.6,2.32-5.68s-0.88-4.16-2.32-5.68c-2.96-2.96-8.4-2.96-11.36,0 C96.88,35.84,96,37.92,96,40s0.88,4.16,2.32,5.68C99.84,47.12,101.92,48,104,48z"></path><path d="M136,48c2.16,0,4.16-0.88,5.68-2.32c1.44-1.52,2.32-3.6,2.32-5.68s-0.88-4.16-2.32-5.68c-2.96-2.96-8.4-2.96-11.36,0 c-1.44,1.52-2.32,3.6-2.32,5.68s0.88,4.16,2.32,5.68C131.84,47.12,133.92,48,136,48z"></path><path d="M40,80c2.08,0,4.16-0.88,5.68-2.32C47.12,76.16,48,74.08,48,72s-0.88-4.16-2.32-5.68c-2.96-2.96-8.4-2.96-11.36,0 C32.88,67.84,32,69.92,32,72s0.88,4.16,2.32,5.68C35.84,79.12,37.92,80,40,80z"></path><path d="M72,80c2.08,0,4.16-0.88,5.68-2.32C79.12,76.16,80,74.16,80,72c0-2.08-0.88-4.16-2.32-5.68c-2.96-2.96-8.4-2.96-11.36,0 C64.88,67.84,64,69.92,64,72s0.88,4.16,2.32,5.68C67.84,79.12,69.92,80,72,80z"></path><path d="M104,80c2.08,0,4.16-0.88,5.68-2.32c1.44-1.52,2.32-3.6,2.32-5.68s-0.88-4.16-2.32-5.68c-3.04-2.96-8.4-2.96-11.36,0 C96.88,67.84,96,69.92,96,72s0.88,4.16,2.32,5.68C99.84,79.12,101.92,80,104,80z"></path><path d="M40,112c2.08,0,4.16-0.88,5.68-2.32c1.44-1.52,2.32-3.6,2.32-5.68s-0.88-4.16-2.32-5.68c-3.04-2.96-8.32-2.96-11.36,0 C32.88,99.84,32,101.92,32,104s0.88,4.16,2.32,5.68C35.84,111.12,37.92,112,40,112z"></path><path d="M72,112c2.08,0,4.16-0.88,5.68-2.32c1.44-1.52,2.32-3.6,2.32-5.68s-0.88-4.16-2.32-5.68c-2.96-2.96-8.32-2.96-11.36,0 C64.88,99.84,64,101.92,64,104s0.88,4.16,2.32,5.68C67.84,111.12,69.92,112,72,112z"></path><path d="M40,144c2.08,0,4.16-0.88,5.68-2.32c1.44-1.52,2.32-3.6,2.32-5.68s-0.88-4.16-2.32-5.68c-2.96-2.96-8.4-2.96-11.36,0 c-1.44,1.52-2.32,3.6-2.32,5.68s0.88,4.16,2.32,5.68C35.84,143.12,37.84,144,40,144z"></path><path d="M128,216c8.998,0,17.31-2.988,24-8.022V208c0,4.416,3.584,8,8,8s8-3.584,8-8v-64c0-4.416-3.584-8-8-8s-8,3.584-8,8v0.022 c-6.69-5.034-15.002-8.022-24-8.022c-22.056,0-40,17.944-40,40C88,198.056,105.944,216,128,216z M128,152 c13.232,0,24,10.768,24,24s-10.768,24-24,24s-24-10.768-24-24S114.768,152,128,152z"></path><path d="M200,216c4.416,0,8-3.584,8-8v-0.022c6.69,5.034,15.002,8.022,24,8.022c22.056,0,40-17.944,40-40 c0-22.056-17.944-40-40-40c-8.998,0-17.31,2.988-24,8.022V96c0-4.416-3.584-8-8-8s-8,3.584-8,8v112 C192,212.416,195.584,216,200,216z M232,152c13.232,0,24,10.768,24,24s-10.768,24-24,24s-24-10.768-24-24S218.768,152,232,152z"></path><path d="M378.32,250.32c-1.44,1.52-2.32,3.6-2.32,5.68c0,2.16,0.88,4.16,2.32,5.68c1.52,1.44,3.6,2.32,5.68,2.32 c2.08,0,4.16-0.88,5.68-2.32c1.44-1.52,2.32-3.6,2.32-5.68c0-2.08-0.88-4.16-2.32-5.68 C386.64,247.36,381.36,247.36,378.32,250.32z"></path><path d="M378.32,282.32c-1.44,1.512-2.32,3.6-2.32,5.68c0,2.08,0.88,4.16,2.32,5.68c1.52,1.44,3.6,2.32,5.68,2.32 c2.08,0,4.16-0.88,5.68-2.32c1.44-1.52,2.32-3.6,2.32-5.68c0-2.08-0.88-4.168-2.32-5.68 C386.64,279.36,381.28,279.36,378.32,282.32z"></path></g></g></g></svg>