<!-- icon666.com - MILLIONS vector ICONS FREE --><svg xmlns="http://www.w3.org/2000/svg" id="_3_Line_Expand" data-name="3 Line Expand" viewBox="0 0 64 64"><path d="M61,34V30a1,1,0,0,0-1-1H51V16a1,1,0,0,0-.445-.832l-18-12a1,1,0,0,0-1.11,0l-18,12A1,1,0,0,0,13,16V29H4a1,1,0,0,0-1,1v4a1,1,0,0,0,1,1V51a1,1,0,0,0-1,1v8a1,1,0,0,0,1,1H60a1,1,0,0,0,1-1V52a1,1,0,0,0-1-1V35A1,1,0,0,0,61,34ZM32,5.2,46.7,15H41.3L32.555,9.168a1,1,0,0,0-1.11,0L22.7,15H17.3ZM37.7,15H26.3L32,11.2ZM15,17H49V29H47V20a1,1,0,0,0-1-1H42a1,1,0,0,0-1,1v9H39V20a1,1,0,0,0-1-1H34a1,1,0,0,0-1,1v9H31V20a1,1,0,0,0-1-1H26a1,1,0,0,0-1,1v9H23V20a1,1,0,0,0-1-1H18a1,1,0,0,0-1,1v9H15ZM45,29H43V21h2Zm-8,0H35V21h2Zm-8,0H27V21h2Zm-8,0H19V21h2ZM5,31H59v2H5ZM59,55H42V53H59ZM5,55V53H22v2ZM18,35h2V51H18Zm24,0V51H40V40.5a3.5,3.5,0,0,0-7,0V51H31V40.5a3.5,3.5,0,0,0-7,0V51H22V35ZM38,51H35V40.5a1.5,1.5,0,0,1,3,0Zm-9,0H26V40.5a1.5,1.5,0,0,1,3,0Zm-5,2H40v2H24Zm22-2H44V35h2ZM6,35H16V51H6ZM5,57H19v2H5Zm16,2V57H43v2Zm38,0H45V57H59Zm-1-8H48V35H58Z"></path><path d="M11,37a3,3,0,0,0-3,3v8a1,1,0,0,0,1,1h4a1,1,0,0,0,1-1V40A3,3,0,0,0,11,37Zm1,10H10V40a1,1,0,0,1,2,0Z"></path><path d="M51,49h4a1,1,0,0,0,1-1V40a3,3,0,0,0-6,0v8A1,1,0,0,0,51,49Zm1-9a1,1,0,0,1,2,0v7H52Z"></path></svg>