<!-- icon666.com - MILLIONS vector ICONS FREE --><svg fill="#ffffff" id="Layer_3" viewBox="0 0 64 64" xmlns="http://www.w3.org/2000/svg" data-name="Layer 3"><path d="m7 17h20a1 1 0 0 0 1-1v-6a1 1 0 0 0 -1-1h-20a1 1 0 0 0 -1 1v6a1 1 0 0 0 1 1zm11-2h-2v-4h2zm2-4h2v4h-2zm6 4h-2v-4h2zm-18-4h6v4h-6z"></path><path d="m62 1h-4a1 1 0 0 0 -1 1v3h-50v-3a1 1 0 0 0 -1-1h-4a1 1 0 0 0 -1 1v60a1 1 0 0 0 1 1h4a1 1 0 0 0 .9-.564l15.726-32.436h8.374v4h2v-4h8.374l15.726 32.436a1 1 0 0 0 .9.564h4a1 1 0 0 0 1-1v-60a1 1 0 0 0 -1-1zm-1 18h-58v-12h58zm-2 22.414 2 2v3.172l-2 2zm-54 7.172-2-2v-3.172l2-2zm0-27.586v1.586l-2 2v-3.586zm0 4.414v7.172l-2-2v-3.172zm0 10v3.172l-2 2v-7.172zm0 16v3.172l-2 2v-7.172zm2-30.414h50v7h-50zm52 4.414 2 2v3.172l-2 2zm0 26 2-2v7.172l-2-2zm0-12.828v-3.172l2-2v7.172zm0-16v-1.586h2v3.586zm0-19.586h2v2h-2zm-54 0v2h-2v-2zm-2 56.414 2-2v3.586h-2zm4-1.769v-27.645h13.4zm50-27.645v27.645l-13.4-27.645zm2 31v-3.586l2 2v1.586z"></path><path d="m31 57h2v6h-2z"></path><path d="m31 50h2v5h-2z"></path><path d="m31 43h2v5h-2z"></path><path d="m31 36h2v5h-2z"></path><path d="m32 10h26v2h-26z"></path><path d="m36 14h18v2h-18z"></path></svg>