<!-- icon666.com - MILLIONS vector ICONS FREE --><svg fill="#ffffff" id="Capa_1" enable-background="new 0 0 512 512" viewBox="0 0 512 512" xmlns="http://www.w3.org/2000/svg"><g><path d="m491.961 95.317h-71.974c-.007 0-.013.001-.019.001h-48.977c-19.192-44.525-63.508-75.776-114.991-75.776s-95.799 31.251-114.991 75.776h-48.976c-.007 0-.013-.001-.019-.001h-71.975c-11.049 0-20.039 8.989-20.039 20.039v73.314c0 17.202 8.566 32.43 21.647 41.676v242.072c0 11.05 8.99 20.039 20.039 20.039h428.628c11.049 0 20.039-8.989 20.039-20.039v-242.072c13.081-9.245 21.647-24.474 21.647-41.676v-73.314c0-11.05-8.99-20.039-20.039-20.039zm-81.994 20.04v73.313c0 .023.002.045.002.068-.037 17.051-13.919 30.913-30.979 30.913-6.76 0-13.213-2.19-18.509-6.146 13.055-19.757 20.67-43.41 20.67-68.812 0-10.101-1.211-19.922-3.481-29.336zm-153.967-75.776c57.959 0 105.112 47.153 105.112 105.112s-47.153 105.112-105.112 105.112-105.112-47.154-105.112-105.113 47.153-105.111 105.112-105.111zm-104.481 173.924c-5.295 3.956-11.749 6.146-18.509 6.146-17.06 0-30.942-13.862-30.979-30.913 0-.023.002-.045.002-.068v-73.313h32.297c-2.27 9.414-3.481 19.235-3.481 29.336 0 25.402 7.614 49.055 20.67 68.812zm-131.48-98.149h61.951v73.314c0 .023.002.045.002.068-.037 17.05-13.917 30.91-30.976 30.91-17.081 0-30.977-13.896-30.977-30.977zm337.782 218.432h-203.642v-22.156h203.642zm-203.642 20.039h91.801v13.945c0 5.533 4.486 10.02 10.02 10.02s10.02-4.486 10.02-10.02v-13.945h91.801v118.592h-91.801v-14.82c0-5.533-4.486-10.02-10.02-10.02s-10.02 4.486-10.02 10.02v14.82h-91.801zm316.135 118.592h-92.454v-160.919c0-10.977-8.931-19.907-19.908-19.907h-203.905c-10.977 0-19.908 8.931-19.908 19.907v160.919h-92.453v-233.602c3.027.562 6.143.87 9.33.87 16.781 0 31.692-8.147 40.995-20.69 9.304 12.545 24.216 20.693 40.998 20.693 11.292 0 22.068-3.704 30.855-10.393 22.891 24.909 55.72 40.547 92.136 40.547s69.245-15.638 92.136-40.547c8.787 6.689 19.562 10.393 30.854 10.393 16.782 0 31.695-8.148 40.998-20.693 9.303 12.543 24.214 20.69 40.995 20.69 3.188 0 6.303-.308 9.33-.87v233.602zm21.647-283.749c0 17.081-13.896 30.977-30.977 30.977-17.059 0-30.939-13.86-30.976-30.91 0-.023.002-.045.002-.068v-73.314h61.951z"></path><path d="m175.135 130.239 11.274 58.361c.009.05.02.099.03.148 2.001 9.582 9.7 16.275 18.723 16.275h101.676c9.022 0 16.722-6.693 18.723-16.275.01-.049.021-.098.03-.148l11.274-58.361c1.138-5.893-.4-11.928-4.22-16.557s-9.454-7.284-15.455-7.284h-47.136l8.892-23.269c1.975-5.168-.614-10.961-5.783-12.935-5.17-1.978-10.961.614-12.936 5.783l-11.625 30.422h-53.792c-6.001 0-11.635 2.655-15.455 7.284s-5.358 10.662-4.22 16.556zm19.675-3.802 122.38.001-11.255 58.26c-.025.108-.053.203-.083.285h-99.705c-.029-.082-.058-.177-.083-.286l-11.277-58.259c.001 0 .008-.001.023-.001z"></path><path d="m279.01 171.718c5.534 0 10.02-4.486 10.02-10.02v-11.732c0-5.533-4.486-10.02-10.02-10.02s-10.02 4.486-10.02 10.02v11.732c.001 5.534 4.487 10.02 10.02 10.02z"></path><path d="m232.99 171.718c5.534 0 10.02-4.486 10.02-10.02v-11.732c0-5.533-4.486-10.02-10.02-10.02s-10.02 4.486-10.02 10.02v11.732c0 5.534 4.486 10.02 10.02 10.02z"></path><circle cx="256" cy="412.686" r="10"></circle></g></svg>