<!-- icon666.com - MILLIONS vector ICONS FREE --><svg fill="#ffffff" id="Capa_1" enable-background="new 0 0 512.027 512.027" viewBox="0 0 512.027 512.027" xmlns="http://www.w3.org/2000/svg"><g><path d="m479.442 306.718-6.745-20.226c-28.942-86.85 27.333-151.326 38.248-182.006 3.032-6.064-1.266-10.829-1.308-10.929-.019-.022-.037-.045-.056-.067l-74.899-89.879c-1.9-2.28-4.714-3.598-7.682-3.598-2.967 0-5.782 1.318-7.682 3.598l-28.007 33.609c-38.022-23.404-87.871-37.207-135.311-37.207s-97.289 13.803-135.311 37.207l-28.007-33.609c-1.9-2.28-4.714-3.598-7.682-3.598s-5.782 1.318-7.682 3.598l-74.898 89.878c-1.432 1.661-2.406 4.01-2.412 6.51-.003 1.647.371 3.135 1.047 4.487 11.144 31.326 67.141 95.303 38.248 182.004l-6.745 20.228c-18.511 3.499-32.558 19.782-32.558 39.295v66c0 24.299 13.346 40 34 40h62v20c0 22.056 17.944 40 40 40h75c5.523 0 10-4.477 10-10s-4.477-10-10-10h-75c-11.028 0-20-8.972-20-20v-30c0-11.028 8.972-20 20-20h21.266c4.452 17.233 20.13 30 38.734 30s34.282-12.767 38.734-30h42.532c4.452 17.233 20.13 30 38.734 30s34.282-12.767 38.734-30h21.266c11.028 0 20 8.972 20 20v30c0 11.028-8.972 20-20 20h-75c-5.523 0-10 4.477-10 10s4.477 10 10 10h75c22.056 0 40-17.944 40-40v-20h56c22.056 0 40-17.944 40-40v-66c0-19.513-14.048-35.796-32.558-39.295zm-124.708-.705c-4.452-17.233-20.13-30-38.734-30s-34.282 12.767-38.734 30h-42.532c-4.452-17.233-20.13-30-38.734-30s-34.282 12.767-38.734 30h-20.059l-6.51-19.522c-12.065-36.194-10.098-79.969 5.026-115.051 33.44-19.713 78.131-31.427 120.277-31.427 42.145 0 86.837 11.714 120.277 31.427 15.124 35.08 17.091 78.856 5.027 115.05l-6.51 19.523zm-118.734 20h40v76h-40zm-209.82-216h117.64l-20 40h-77.64zm439.64 40h-77.64l-20-40h117.64zm-123.812-50.015c-.002 1.581.376 3.144 1.047 4.487l18.626 37.252c-32.166-13.822-69.82-21.724-105.681-21.724s-73.516 7.902-105.681 21.724l18.626-37.252c.699-1.397 1.05-2.885 1.047-4.487-.004-1.567-.374-3.15-1.14-4.617 25.95-9.711 57.563-15.368 87.148-15.368s61.198 5.657 87.148 15.368c-.785 1.505-1.136 3.093-1.14 4.617zm-286.712 70.005h59.425c-14.545 38.258-15.819 84.349-2.998 122.814l4.4 13.196h-62.247l4.401-13.198c12.952-38.863 11.635-84.544-2.981-122.812zm341.983 0h59.425c-14.616 38.268-15.932 83.949-2.98 122.814l4.4 13.196h-62.248l4.401-13.198c12.821-38.463 11.546-84.556-2.998-122.812zm29.721-144.37 53.65 64.38h-107.299zm-171-5.62c42.866 0 87.738 12.122 122.359 32.749l-21.946 26.335c-29.275-12.013-66.177-19.084-100.413-19.084s-71.138 7.071-100.413 19.083l-21.946-26.335c34.621-20.626 79.493-32.748 122.359-32.748zm-171 5.62 53.648 64.38h-107.297zm12.266 406.38h-63.266c-11.571 0-14-10.876-14-20v-66c0-11.028 8.972-20 20-20h116v76h-20c-18.604 0-34.282 12.767-38.734 30zm98.734 0c-11.028 0-20-8.972-20-20v-96c0-11.028 8.972-20 20-20s20 8.972 20 20v96c0 11.028-8.972 20-20 20zm120 0c-11.028 0-20-8.972-20-20v-96c0-11.028 8.972-20 20-20s20 8.972 20 20v96c0 11.028-8.972 20-20 20zm176-20c0 11.028-8.972 20-20 20h-57.266c-4.452-17.233-20.13-30-38.734-30h-20v-76h115.924c.025 0 .049.003.074.003.011 0 .022-.001.033-.001 11.013.017 19.968 8.981 19.968 19.998v66z"></path><circle cx="256" cy="502.013" r="10"></circle></g></svg>