<!-- icon666.com - MILLIONS vector ICONS FREE --><svg fill="#FFFFFF" id="Capa_1" enable-background="new 0 0 512 512" viewBox="0 0 512 512" xmlns="http://www.w3.org/2000/svg"><g><path d="m469.938 40.108h-20.588v-.575c.001-21.799-17.734-39.533-39.533-39.533s-39.533 17.734-39.533 39.533v.575h-23.479v-.575c.001-21.799-17.734-39.533-39.533-39.533s-39.533 17.734-39.533 39.533v.575h-23.479v-.575c.001-21.799-17.734-39.533-39.532-39.533s-39.533 17.734-39.533 39.533v.575h-23.479v-.575c0-21.799-17.735-39.533-39.533-39.533-21.799 0-39.533 17.734-39.533 39.533v.575h-20.588c-5.523 0-10 4.478-10 10v294.093c0 5.522 4.477 10 10 10h43.399v137.799h-35.461c-5.523 0-10 4.478-10 10s4.477 10 10 10h412c5.522 0 10-4.478 10-10s-4.478-10-10-10h-37.282v-137.799h45.221c5.522 0 10-4.478 10-10v-294.093c-.001-5.522-4.478-10-10.001-10zm-79.654-.575c0-10.771 8.763-19.533 19.533-19.533s19.533 8.763 19.533 19.533v.575h-39.066zm-102.545 0c0-10.771 8.763-19.533 19.533-19.533s19.533 8.763 19.533 19.533v.575h-39.066zm-102.545 0c0-10.771 8.763-19.533 19.533-19.533s19.533 8.763 19.533 19.533v.575h-39.066zm-102.544 0c0-10.77 8.763-19.533 19.533-19.533s19.533 8.763 19.533 19.533v.575h-39.066zm22.811 452.467v-137.799h22.548v137.799zm256.708-137.799v137.799h-214.16v-137.799zm42.549 137.799h-22.549v-137.799h22.549zm55.22-157.799h-407.876v-274.093h407.877v274.093z"></path><path d="m305.593 84.108h-218.211c-5.523 0-10 4.478-10 10v206.093c0 5.522 4.477 10 10 10h218.211c5.522 0 10-4.478 10-10v-206.093c0-5.522-4.478-10-10-10zm-10 206.093h-198.211v-186.093h198.211z"></path><path d="m424.618 84.108h-69.766c-5.522 0-10 4.478-10 10s4.478 10 10 10h69.766c5.522 0 10-4.478 10-10s-4.477-10-10-10z"></path><path d="m424.618 129.108h-69.766c-5.522 0-10 4.478-10 10s4.478 10 10 10h69.766c5.522 0 10-4.478 10-10s-4.477-10-10-10z"></path><path d="m424.618 174.108h-69.766c-5.522 0-10 4.478-10 10s4.478 10 10 10h69.766c5.522 0 10-4.478 10-10s-4.477-10-10-10z"></path><path d="m424.618 290.201h-69.766c-5.522 0-10 4.478-10 10s4.478 10 10 10h69.766c5.522 0 10-4.478 10-10s-4.477-10-10-10z"></path></g></svg>